<svg width="162" height="33" viewBox="0 0 162 33" fill="none" xmlns="http://www.w3.org/2000/svg">
<g clip-path="url(#clip0_0_345)">
<path d="M50.168 8.864C52.328 8.864 54.112 9.432 55.52 10.568C56.944 11.704 57.864 13.24 58.28 15.176H53.936C53.616 14.392 53.12 13.776 52.448 13.328C51.792 12.88 51.008 12.656 50.096 12.656C48.896 12.656 47.928 13.096 47.192 13.976C46.456 14.856 46.088 16.032 46.088 17.504C46.088 18.976 46.456 20.152 47.192 21.032C47.928 21.896 48.896 22.328 50.096 22.328C51.008 22.328 51.792 22.104 52.448 21.656C53.12 21.208 53.616 20.6 53.936 19.832H58.28C57.864 21.752 56.944 23.288 55.52 24.44C54.112 25.576 52.328 26.144 50.168 26.144C48.52 26.144 47.072 25.784 45.824 25.064C44.576 24.328 43.608 23.304 42.92 21.992C42.248 20.68 41.912 19.184 41.912 17.504C41.912 15.824 42.248 14.328 42.92 13.016C43.608 11.704 44.576 10.688 45.824 9.968C47.072 9.232 48.52 8.864 50.168 8.864ZM73.9001 12.608V26H69.7721V23.576C69.3881 24.36 68.8121 24.984 68.0441 25.448C67.2921 25.912 66.4121 26.144 65.4041 26.144C63.8681 26.144 62.6441 25.632 61.7321 24.608C60.8361 23.584 60.3881 22.176 60.3881 20.384V12.608H64.4681V19.88C64.4681 20.792 64.7001 21.504 65.1641 22.016C65.6441 22.512 66.2841 22.76 67.0841 22.76C67.9161 22.76 68.5721 22.496 69.0521 21.968C69.5321 21.44 69.7721 20.688 69.7721 19.712V12.608H73.9001ZM84.3125 22.472V26H82.4645C80.8965 26 79.6725 25.616 78.7925 24.848C77.9285 24.064 77.4965 22.776 77.4965 20.984V16.064H75.6965V12.608H77.4965V9.32H81.6005V12.608H84.2885V16.064H81.6005V21.056C81.6005 21.584 81.7045 21.952 81.9125 22.16C82.1365 22.368 82.5045 22.472 83.0165 22.472H84.3125ZM98.8111 21.224C98.8111 22.12 98.5791 22.944 98.1151 23.696C97.6671 24.448 96.9951 25.048 96.0991 25.496C95.2191 25.944 94.1471 26.168 92.8831 26.168C90.9791 26.168 89.4111 25.704 88.1791 24.776C86.9471 23.848 86.2751 22.552 86.1631 20.888H90.5311C90.5951 21.528 90.8191 22.032 91.2031 22.4C91.6031 22.768 92.1071 22.952 92.7151 22.952C93.2431 22.952 93.6591 22.808 93.9631 22.52C94.2671 22.232 94.4191 21.848 94.4191 21.368C94.4191 20.936 94.2751 20.576 93.9871 20.288C93.7151 20 93.3711 19.768 92.9551 19.592C92.5391 19.4 91.9631 19.176 91.2271 18.92C90.1551 18.552 89.2751 18.2 88.5871 17.864C87.9151 17.512 87.3311 17 86.8351 16.328C86.3551 15.64 86.1151 14.752 86.1151 13.664C86.1151 12.656 86.3711 11.784 86.8831 11.048C87.3951 10.312 88.0991 9.752 88.9951 9.368C89.9071 8.968 90.9471 8.768 92.1151 8.768C94.0031 8.768 95.4991 9.216 96.6031 10.112C97.7231 11.008 98.3551 12.24 98.4991 13.808H94.0591C93.9791 13.248 93.7711 12.808 93.4351 12.488C93.1151 12.152 92.6751 11.984 92.1151 11.984C91.6351 11.984 91.2431 12.112 90.9391 12.368C90.6511 12.624 90.5071 13 90.5071 13.496C90.5071 13.896 90.6351 14.24 90.8911 14.528C91.1631 14.8 91.4991 15.024 91.8991 15.2C92.2991 15.376 92.8751 15.6 93.6271 15.872C94.7151 16.24 95.6031 16.608 96.2911 16.976C96.9791 17.328 97.5711 17.848 98.0671 18.536C98.5631 19.224 98.8111 20.12 98.8111 21.224ZM109.432 12.44C110.536 12.44 111.52 12.72 112.384 13.28C113.264 13.824 113.952 14.616 114.448 15.656C114.96 16.68 115.216 17.896 115.216 19.304C115.216 20.696 114.96 21.912 114.448 22.952C113.952 23.992 113.264 24.792 112.384 25.352C111.52 25.896 110.536 26.168 109.432 26.168C108.408 26.168 107.528 25.936 106.792 25.472C106.056 25.008 105.52 24.376 105.184 23.576V32.384H101.08V12.608H105.184V15.032C105.52 14.232 106.056 13.6 106.792 13.136C107.528 12.672 108.408 12.44 109.432 12.44ZM108.112 16.04C107.248 16.04 106.536 16.336 105.976 16.928C105.432 17.504 105.16 18.296 105.16 19.304C105.16 20.296 105.432 21.088 105.976 21.68C106.536 22.272 107.248 22.568 108.112 22.568C108.992 22.568 109.696 22.28 110.224 21.704C110.768 21.128 111.04 20.328 111.04 19.304C111.04 18.28 110.768 17.48 110.224 16.904C109.696 16.328 108.992 16.04 108.112 16.04ZM122.434 12.44C123.458 12.44 124.338 12.672 125.074 13.136C125.81 13.6 126.354 14.232 126.706 15.032V12.608H130.786V26H126.706V23.576C126.354 24.376 125.81 25.008 125.074 25.472C124.338 25.936 123.458 26.168 122.434 26.168C121.33 26.168 120.338 25.896 119.458 25.352C118.594 24.792 117.906 23.992 117.394 22.952C116.898 21.912 116.65 20.696 116.65 19.304C116.65 17.896 116.898 16.68 117.394 15.656C117.906 14.616 118.594 13.824 119.458 13.28C120.338 12.72 121.33 12.44 122.434 12.44ZM123.754 16.04C122.874 16.04 122.162 16.328 121.618 16.904C121.09 17.48 120.826 18.28 120.826 19.304C120.826 20.328 121.09 21.128 121.618 21.704C122.162 22.28 122.874 22.568 123.754 22.568C124.618 22.568 125.322 22.272 125.866 21.68C126.426 21.088 126.706 20.296 126.706 19.304C126.706 18.296 126.426 17.504 125.866 16.928C125.322 16.336 124.618 16.04 123.754 16.04ZM139.659 12.44C141.387 12.44 142.835 12.92 144.003 13.88C145.171 14.824 145.907 16.128 146.211 17.792H141.867C141.739 17.216 141.475 16.768 141.075 16.448C140.675 16.128 140.171 15.968 139.563 15.968C138.843 15.968 138.251 16.256 137.787 16.832C137.323 17.392 137.091 18.216 137.091 19.304C137.091 20.392 137.323 21.224 137.787 21.8C138.251 22.36 138.843 22.64 139.563 22.64C140.171 22.64 140.675 22.48 141.075 22.16C141.475 21.84 141.739 21.392 141.867 20.816H146.211C145.907 22.48 145.171 23.792 144.003 24.752C142.835 25.696 141.387 26.168 139.659 26.168C138.347 26.168 137.179 25.896 136.155 25.352C135.147 24.792 134.355 23.992 133.779 22.952C133.203 21.912 132.915 20.696 132.915 19.304C132.915 17.896 133.195 16.68 133.755 15.656C134.331 14.616 135.131 13.824 136.155 13.28C137.179 12.72 138.347 12.44 139.659 12.44ZM161.074 18.944C161.074 19.28 161.034 19.648 160.954 20.048H151.666C151.714 21.056 151.97 21.784 152.434 22.232C152.898 22.664 153.49 22.88 154.21 22.88C154.818 22.88 155.322 22.728 155.722 22.424C156.122 22.12 156.386 21.728 156.514 21.248H160.858C160.682 22.192 160.298 23.04 159.706 23.792C159.114 24.528 158.362 25.112 157.45 25.544C156.538 25.96 155.522 26.168 154.402 26.168C153.09 26.168 151.922 25.896 150.898 25.352C149.89 24.792 149.098 23.992 148.521 22.952C147.946 21.912 147.658 20.696 147.658 19.304C147.658 17.896 147.938 16.68 148.498 15.656C149.074 14.616 149.874 13.824 150.898 13.28C151.922 12.72 153.09 12.44 154.402 12.44C155.73 12.44 156.898 12.712 157.906 13.256C158.914 13.8 159.69 14.568 160.234 15.56C160.794 16.536 161.074 17.664 161.074 18.944ZM156.922 18.32C156.938 17.44 156.698 16.784 156.202 16.352C155.722 15.904 155.122 15.68 154.402 15.68C153.65 15.68 153.026 15.904 152.53 16.352C152.034 16.8 151.754 17.456 151.69 18.32H156.922Z" fill="#323232"/>
<path fill-rule="evenodd" clip-rule="evenodd" d="M16 17L26.5987 6.38545C20.7788 0.574213 11.209 0.577767 5.3934 6.3934C-0.425229 12.212 -0.425229 21.788 5.3934 27.6066C11.212 33.4252 20.788 33.4252 26.6066 27.6066L16 17Z" fill="#58BEBF"/>
</g>
<defs>
<clipPath id="clip0_0_345">
<rect width="162" height="33" fill="white"/>
</clipPath>
</defs>
</svg>
